<svg width="345" height="100" viewBox="0 0 345 100" fill="none" xmlns="http://www.w3.org/2000/svg">
<rect width="345" height="100" fill="white"/>
<path d="M25 31.25C25 27.8027 27.8027 25 31.25 25H46.875V37.5C46.875 39.2285 48.2715 40.625 50 40.625H62.5V54.6875H42.1875C38.7402 54.6875 35.9375 57.4902 35.9375 60.9375V75H31.25C27.8027 75 25 72.1973 25 68.75V31.25ZM62.5 37.5H50V25L62.5 37.5ZM42.1875 59.375H45.3125C48.3301 59.375 50.7812 61.8262 50.7812 64.8438C50.7812 67.8613 48.3301 70.3125 45.3125 70.3125H43.75V73.4375C43.75 74.2969 43.0469 75 42.1875 75C41.3281 75 40.625 74.2969 40.625 73.4375V60.9375C40.625 60.0781 41.3281 59.375 42.1875 59.375ZM45.3125 67.1875C46.6113 67.1875 47.6562 66.1426 47.6562 64.8438C47.6562 63.5449 46.6113 62.5 45.3125 62.5H43.75V67.1875H45.3125ZM54.6875 59.375H57.8125C60.4004 59.375 62.5 61.4746 62.5 64.0625V70.3125C62.5 72.9004 60.4004 75 57.8125 75H54.6875C53.8281 75 53.125 74.2969 53.125 73.4375V60.9375C53.125 60.0781 53.8281 59.375 54.6875 59.375ZM57.8125 71.875C58.6719 71.875 59.375 71.1719 59.375 70.3125V64.0625C59.375 63.2031 58.6719 62.5 57.8125 62.5H56.25V71.875H57.8125ZM65.625 60.9375C65.625 60.0781 66.3281 59.375 67.1875 59.375H71.875C72.7344 59.375 73.4375 60.0781 73.4375 60.9375C73.4375 61.7969 72.7344 62.5 71.875 62.5H68.75V65.625H71.875C72.7344 65.625 73.4375 66.3281 73.4375 67.1875C73.4375 68.0469 72.7344 68.75 71.875 68.75H68.75V73.4375C68.75 74.2969 68.0469 75 67.1875 75C66.3281 75 65.625 74.2969 65.625 73.4375V60.9375Z" fill="black"/>
<g clip-path="url(#clip0_886_2)">
<path fill-rule="evenodd" clip-rule="evenodd" d="M191.25 39.0625V68.75C191.25 70.4076 190.592 71.9973 189.419 73.1694C188.247 74.3415 186.658 75 185 75H181.875V71.875H185C185.829 71.875 186.624 71.5458 187.21 70.9597C187.796 70.3737 188.125 69.5788 188.125 68.75V39.0625H181.875C180.632 39.0625 179.44 38.5686 178.56 37.6896C177.681 36.8105 177.188 35.6182 177.188 34.375V28.125H160C159.171 28.125 158.376 28.4542 157.79 29.0403C157.204 29.6263 156.875 30.4212 156.875 31.25V59.375H153.75V31.25C153.75 29.5924 154.408 28.0027 155.581 26.8306C156.753 25.6585 158.342 25 160 25H177.188L191.25 39.0625ZM158.491 71.3781C158.509 71.8705 158.629 72.3537 158.845 72.7967C159.061 73.2396 159.367 73.6325 159.744 73.95C160.15 74.2875 160.648 74.55 161.237 74.7375C161.829 74.9271 162.522 75.0219 163.316 75.0219C164.372 75.0219 165.267 74.8573 166 74.5281C166.738 74.199 167.299 73.7406 167.684 73.1531C168.074 72.5615 168.269 71.8781 168.269 71.1031C168.269 70.4031 168.129 69.8198 167.85 69.3531C167.564 68.8848 167.16 68.5 166.678 68.2375C166.125 67.9305 165.529 67.7092 164.909 67.5813L162.969 67.1313C162.512 67.0441 162.081 66.8562 161.706 66.5812C161.564 66.4713 161.449 66.3296 161.371 66.1673C161.292 66.0051 161.253 65.8269 161.256 65.6469C161.256 65.1594 161.449 64.7594 161.834 64.4469C162.226 64.1302 162.759 63.9719 163.434 63.9719C163.88 63.9719 164.266 64.0427 164.591 64.1844C164.891 64.3034 165.156 64.4983 165.359 64.75C165.552 64.982 165.681 65.2597 165.734 65.5562H168.078C168.038 64.9201 167.821 64.3077 167.453 63.7875C167.059 63.2255 166.519 62.7823 165.891 62.5062C165.124 62.1683 164.291 62.006 163.453 62.0313C162.539 62.0313 161.73 62.1875 161.028 62.5C160.326 62.8104 159.777 63.249 159.381 63.8156C158.985 64.3844 158.787 65.05 158.787 65.8125C158.787 66.4417 158.915 66.9875 159.169 67.45C159.427 67.9146 159.794 68.2969 160.269 68.5969C160.744 68.8948 161.305 69.1167 161.953 69.2625L163.884 69.7125C164.53 69.8646 165.012 70.0656 165.331 70.3156C165.486 70.4348 165.611 70.5897 165.693 70.767C165.776 70.9443 165.815 71.1389 165.806 71.3344C165.813 71.6566 165.721 71.9732 165.541 72.2406C165.339 72.5149 165.062 72.7244 164.744 72.8438C164.396 72.9896 163.966 73.0625 163.453 73.0625C163.089 73.0625 162.755 73.0208 162.453 72.9375C162.176 72.8631 161.914 72.7415 161.678 72.5781C161.47 72.4432 161.292 72.2671 161.155 72.0607C161.018 71.8543 160.925 71.622 160.881 71.3781H158.491ZM150.019 67.7906C150.019 67.0135 150.125 66.3542 150.337 65.8125C150.523 65.3134 150.851 64.8799 151.281 64.5656C151.718 64.2698 152.238 64.1199 152.766 64.1375C153.234 64.1375 153.649 64.2385 154.009 64.4406C154.362 64.6288 154.656 64.9098 154.859 65.2531C155.077 65.6146 155.206 66.0227 155.234 66.4438H157.625V66.2187C157.604 65.6431 157.464 65.0781 157.213 64.5595C156.963 64.0409 156.607 63.5801 156.169 63.2062C155.722 62.823 155.202 62.5339 154.641 62.3563C154.031 62.1475 153.391 62.045 152.747 62.0531C151.634 62.0531 150.685 62.2854 149.9 62.75C149.119 63.2125 148.523 63.8708 148.112 64.725C147.706 65.5792 147.502 66.599 147.5 67.7844V69.3406C147.5 70.524 147.701 71.5406 148.103 72.3906C148.514 73.2385 149.109 73.8906 149.891 74.3469C150.672 74.799 151.624 75.025 152.747 75.025C153.661 75.025 154.479 74.8542 155.2 74.5125C155.921 74.1708 156.494 73.6979 156.919 73.0938C157.35 72.4732 157.595 71.7425 157.625 70.9875V70.75H155.238C155.208 71.1523 155.081 71.5415 154.869 71.8844C154.66 72.2162 154.367 72.486 154.019 72.6656C153.628 72.8515 153.199 72.9446 152.766 72.9375C152.238 72.9515 151.718 72.8079 151.272 72.525C150.844 72.2207 150.518 71.7935 150.337 71.3C150.109 70.6727 150.001 70.008 150.019 69.3406V67.7906ZM175.766 74.7844H172.788L168.606 62.2875H171.472L174.272 72.0937H174.391L177.166 62.2875H179.912L175.766 74.7844Z" fill="black"/>
</g>
<path d="M299.167 31.25V39.5833C299.167 40.1359 299.386 40.6658 299.777 41.0565C300.168 41.4472 300.698 41.6667 301.25 41.6667H309.583" stroke="black" stroke-width="2" stroke-linecap="round" stroke-linejoin="round"/>
<path d="M280.417 50V35.4167C280.417 34.3116 280.856 33.2518 281.637 32.4704C282.418 31.689 283.478 31.25 284.583 31.25H299.167L309.583 41.6667V50M278.333 56.25L286.667 68.75M278.333 68.75L286.667 56.25M305.417 67.1875C305.417 68.05 306.117 68.75 306.979 68.75H309.583C310.136 68.75 310.666 68.5305 311.057 68.1398C311.447 67.7491 311.667 67.2192 311.667 66.6667V64.5833C311.667 64.0308 311.447 63.5009 311.057 63.1102C310.666 62.7195 310.136 62.5 309.583 62.5H307.5C306.948 62.5 306.418 62.2805 306.027 61.8898C305.636 61.4991 305.417 60.9692 305.417 60.4167V58.3333C305.417 57.7808 305.636 57.2509 306.027 56.8602C306.418 56.4695 306.948 56.25 307.5 56.25H310.104C310.519 56.25 310.916 56.4146 311.209 56.7076C311.502 57.0007 311.667 57.3981 311.667 57.8125M292.917 56.25V68.75H299.167" stroke="black" stroke-width="2" stroke-linecap="round" stroke-linejoin="round"/>
<defs>
<clipPath id="clip0_886_2">
<rect width="50" height="50" fill="white" transform="translate(147.5 25)"/>
</clipPath>
</defs>
</svg>
